<svg width="16" height="16" viewBox="0 0 28 29" fill="none" xmlns="http://www.w3.org/2000/svg">
<g clip-path="url(#clip0_206_21560)" filter="url(#filter0_d_206_21560)">
<path d="M4 11H24V20C24 20.2652 23.8946 20.5196 23.7071 20.7071C23.5196 20.8946 23.2652 21 23 21H5C4.73478 21 4.48043 20.8946 4.29289 20.7071C4.10536 20.5196 4 20.2652 4 20V11ZM19 3H23C23.2652 3 23.5196 3.10536 23.7071 3.29289C23.8946 3.48043 24 3.73478 24 4V9H4V4C4 3.73478 4.10536 3.48043 4.29289 3.29289C4.48043 3.10536 4.73478 3 5 3H9V1H11V3H17V1H19V3Z" fill="#03053D"/>
</g>
<defs>
<filter id="filter0_d_206_21560" x="-2" y="0" width="32" height="32" filterUnits="userSpaceOnUse" color-interpolation-filters="sRGB">
<feFlood flood-opacity="0" result="BackgroundImageFix"/>
<feColorMatrix in="SourceAlpha" type="matrix" values="0 0 0 0 0 0 0 0 0 0 0 0 0 0 0 0 0 0 127 0" result="hardAlpha"/>
<feOffset dy="4"/>
<feGaussianBlur stdDeviation="2"/>
<feComposite in2="hardAlpha" operator="out"/>
<feColorMatrix type="matrix" values="0 0 0 0 0 0 0 0 0 0 0 0 0 0 0 0 0 0 0.25 0"/>
<feBlend mode="normal" in2="BackgroundImageFix" result="effect1_dropShadow_206_21560"/>
<feBlend mode="normal" in="SourceGraphic" in2="effect1_dropShadow_206_21560" result="shape"/>
</filter>
<clipPath id="clip0_206_21560">
<rect width="24" height="24" fill="white" transform="translate(2)"/>
</clipPath>
</defs>
</svg>
