<svg width="24" height="24" viewBox="0 0 24 24" fill="none" xmlns="http://www.w3.org/2000/svg">
<path d="M17.7073 12.293C17.3163 11.902 16.6843 11.902 16.2933 12.293L14.6993 13.887C13.9603 13.667 12.5813 13.167 11.7073 12.293C10.8333 11.419 10.3333 10.04 10.1133 9.30101L11.7073 7.70701C12.0983 7.31601 12.0983 6.68401 11.7073 6.29301L7.70733 2.29301C7.31633 1.90201 6.68433 1.90201 6.29333 2.29301L3.58133 5.00501C3.20133 5.38501 2.98733 5.90701 2.99533 6.44001C3.01833 7.86401 3.39533 12.81 7.29333 16.708C11.1913 20.606 16.1373 20.982 17.5623 21.006C17.5673 21.006 17.5853 21.006 17.5903 21.006C18.1183 21.006 18.6173 20.798 18.9953 20.42L21.7073 17.708C22.0983 17.317 22.0983 16.685 21.7073 16.294L17.7073 12.293ZM17.5803 19.005C16.3323 18.984 12.0623 18.649 8.70733 15.293C5.34133 11.927 5.01533 7.64201 4.99533 6.41901L7.00033 4.41401L9.58633 7.00001L8.29333 8.29301C8.05433 8.53101 7.95233 8.87501 8.02133 9.20501C8.04533 9.32001 8.63233 12.047 10.2923 13.707C11.9523 15.367 14.6793 15.954 14.7943 15.978C15.1273 16.049 15.4683 15.946 15.7063 15.707L17.0003 14.414L19.5863 17L17.5803 19.005Z" fill="#2E3A59"/>
</svg>
